<svg width="52" height="52" viewBox="0 0 52 52" fill="none" xmlns="http://www.w3.org/2000/svg">
<rect width="52" height="52" rx="18" fill="#034DB0"/>
<g clip-path="url(#clip0_2_379)">
<path fill-rule="evenodd" clip-rule="evenodd" d="M41.0277 16.5946C41.0277 17.8473 39.9795 18.8721 38.6983 18.8721H33.7646C34.1107 18.1941 34.3058 17.4292 34.3058 16.6197C34.3058 15.7902 34.1012 15.0074 33.7387 14.3171H38.6983C39.9795 14.3171 41.0277 15.3419 41.0277 16.5946ZM33.0766 36.2917C33.0766 38.4171 31.3142 40.1399 29.1405 40.1399C26.9667 40.1399 25.2046 38.4171 25.2046 36.2917C25.2046 34.1665 26.9667 32.4435 29.1405 32.4435C31.3142 32.4435 33.0766 34.1663 33.0766 36.2917ZM41.0502 36.2664C41.0502 37.5191 40.0018 38.5439 38.7206 38.5439H33.7646C34.1107 37.8659 34.3058 37.101 34.3058 36.2917C34.3058 35.4622 34.1012 34.6794 33.7387 33.9891H38.7206C40.0021 33.9891 41.0502 35.0139 41.0502 36.2664ZM24.5159 38.5439H14.1919C12.9106 38.5439 11.8625 37.5191 11.8625 36.2664C11.8625 35.0137 12.9106 33.9888 14.1919 33.9888H24.5418C24.1795 34.6792 23.9747 35.462 23.9747 36.2915C23.9747 37.101 24.1697 37.8659 24.5159 38.5439ZM18.5894 26.4104C18.5894 28.5356 20.3517 30.2586 22.5255 30.2586C24.699 30.2586 26.4613 28.5356 26.4613 26.4104C26.4613 24.285 24.699 22.5619 22.5255 22.5619C20.3517 22.5617 18.5894 24.2848 18.5894 26.4104ZM11.8599 26.3851C11.8599 27.6378 12.9085 28.6626 14.1893 28.6626H17.9132C17.5671 27.9843 17.372 27.2297 17.372 26.4104C17.372 25.5909 17.5766 24.7981 17.9391 24.1076H14.1893C12.908 24.1076 11.8599 25.1324 11.8599 26.3851ZM27.1617 28.6626H38.7234C40.0044 28.6626 41.0528 27.6378 41.0528 26.3851C41.0528 25.1322 40.0047 24.1073 38.7234 24.1073H27.1361C27.4984 24.7979 27.7031 25.5907 27.7031 26.4102C27.7031 27.2297 27.5079 27.9843 27.1617 28.6626ZM33.0766 16.6197C33.0766 18.7451 31.3142 20.4679 29.1405 20.4679C26.9667 20.4679 25.2043 18.7453 25.2043 16.6197C25.2043 14.4943 26.9664 12.7715 29.1402 12.7715C31.314 12.7715 33.0766 14.4943 33.0766 16.6197ZM24.5159 18.8721H14.2007C12.9194 18.8721 11.8713 17.8471 11.8713 16.5946C11.8713 15.3419 12.9194 14.3171 14.2007 14.3171H24.5418C24.1795 15.0074 23.9747 15.7902 23.9747 16.6197C23.9747 17.4292 24.1697 18.1941 24.5159 18.8721Z" fill="white"/>
</g>
<defs>
<clipPath id="clip0_2_379">
<rect width="29.193" height="27.3684" fill="white" transform="translate(11.8599 12.7715)"/>
</clipPath>
</defs>
</svg>
