<svg width="18" height="17" viewBox="0 0 18 17" fill="none" xmlns="http://www.w3.org/2000/svg">
<path d="M7.32253 0H7.32487V0.00099333C9.34623 0.00156095 11.1766 0.795799 12.5011 2.07918C13.8234 3.36072 14.6426 5.13225 14.6439 7.08883H14.6449V7.09351V7.09918H14.6439C14.6432 7.88775 14.5096 8.64665 14.2639 9.35433C14.2227 9.4731 14.1797 9.58719 14.1354 9.69617V9.69717C13.9236 10.2165 13.6498 10.7075 13.3229 11.1598L17.583 14.869L17.5856 14.8713L17.6086 14.892L17.6102 14.8936C17.8507 15.1154 17.9817 15.4124 17.9983 15.7138C18.0144 16.0118 17.9187 16.3166 17.7084 16.5611L17.7068 16.5633L17.6811 16.5922L17.676 16.5971L17.6546 16.6198L17.6523 16.6228C17.423 16.8558 17.117 16.9824 16.8056 16.9983C16.4984 17.014 16.1834 16.9217 15.9309 16.7176L15.9287 16.716L15.8988 16.6912L15.8946 16.6878L11.5374 12.8941C11.4085 12.9821 11.2769 13.0657 11.1438 13.1446C10.9631 13.2517 10.7761 13.3526 10.5852 13.4447C9.6039 13.919 8.495 14.1857 7.32267 14.1857V14.1867H7.32033V14.1857C5.29897 14.1852 3.46834 13.3909 2.14382 12.1076C0.821052 10.826 0.00234377 9.0542 0.0010254 7.09819H0V7.09351V7.09124H0.0010254C0.00161134 5.1331 0.821492 3.35972 2.14631 2.07663C3.46922 0.795799 5.29795 0.00227047 7.31769 0.00099333V0H7.32253ZM7.32487 1.59075V1.59174H7.32253H7.31769V1.59075C5.75235 1.59174 4.33349 2.20803 3.30633 3.20264C2.27932 4.19724 1.64254 5.57315 1.6421 7.09138H1.64313V7.09365V7.09833H1.6421C1.64313 8.61472 2.27888 9.9885 3.30604 10.9838C4.33275 11.9788 5.75308 12.5957 7.32018 12.596V12.595H7.32253H7.32736V12.596C8.89271 12.595 10.311 11.979 11.3384 10.9841C12.3654 9.98949 13.0022 8.61401 13.0025 7.09592H13.0016V7.09365V7.08897H13.0025C13.0016 5.57258 12.3653 4.19809 11.3387 3.20306C10.312 2.20803 8.89212 1.59117 7.32487 1.59075Z" fill="#142B59"/>
</svg>
